<svg id="Layer_1" data-name="Layer 1" xmlns="http://www.w3.org/2000/svg" viewBox="0 0 60 60"><title>Border Element_60px</title><path d="M53.72,29.25,42.51,9.75A1.52,1.52,0,0,0,41.21,9H18.79a1.52,1.52,0,0,0-1.3.75L6.28,29.25a1.49,1.49,0,0,0,0,1.5l11.21,19.5a1.52,1.52,0,0,0,1.3.75H41.21a1.52,1.52,0,0,0,1.3-.75l11.21-19.5A1.49,1.49,0,0,0,53.72,29.25ZM40.92,49H19.08L8.15,30,19.08,11H40.92L51.85,30Z"/><path d="M34.29,40.35l-3.3,3V35H29v8.37l-3.35-3.09a1,1,0,0,0-1.35,1.47L30,47l5.65-5.18a1,1,0,0,0-1.35-1.48Z"/><path d="M25.72,19.67l3.25-3V25h2V16.61l3.4,3.13a1,1,0,0,0,.68.26,1,1,0,0,0,.73-.32,1,1,0,0,0-.05-1.41L30,13l-5.65,5.18a1,1,0,0,0,1.35,1.48Z"/><path d="M35,30l5.17,5.68a1,1,0,0,0,.74.33,1,1,0,0,0,.67-.26,1,1,0,0,0,.07-1.41l-3-3.35H49V29H38.64l3.09-3.39a1,1,0,0,0-1.47-1.35Z"/><path d="M19.76,24.29a1,1,0,1,0-1.48,1.34L21.35,29H11v2H21.28l-3.07,3.37a1,1,0,0,0,.06,1.41A1,1,0,0,0,19,36a1,1,0,0,0,.73-.32L24.94,30Z"/></svg>