<svg id="Layer_1" data-name="Layer 1" xmlns="http://www.w3.org/2000/svg" viewBox="0 0 24 24"><title>Router_24px</title><path d="M11.5,2A10.5,10.5,0,1,0,22,12.5,10.51,10.51,0,0,0,11.5,2Zm0,20A9.5,9.5,0,1,1,21,12.5,9.51,9.51,0,0,1,11.5,22Z"/><path d="M6.17,10.12a.51.51,0,0,0,0,.71L7.2,12H4v1H7.18l-1,1.16a.5.5,0,0,0,0,.71A.46.46,0,0,0,6.5,15a.52.52,0,0,0,.38-.17L9,12.48,6.87,10.16A.49.49,0,0,0,6.17,10.12Z"/><path d="M15.82,12l1.05-1.16a.5.5,0,0,0-.75-.67L14,12.51l2.12,2.32a.5.5,0,0,0,.37.17.46.46,0,0,0,.33-.13.5.5,0,0,0,0-.71L15.8,13H19V12Z"/><path d="M13.17,17.14,12,18.2V15H11v3.18l-1.17-1a.49.49,0,0,0-.7,0,.5.5,0,0,0,0,.71L11.51,20l2.33-2.11a.5.5,0,0,0,0-.71A.49.49,0,0,0,13.17,17.14Z"/><path d="M11.49,5,9.16,7.14a.5.5,0,0,0,.67.74L11,6.81V10h1V6.83l1.17,1A.51.51,0,0,0,13.5,8a.5.5,0,0,0,.37-.17.5.5,0,0,0,0-.71Z"/></svg>