<svg id="Layer_1" data-name="Layer 1" xmlns="http://www.w3.org/2000/svg" viewBox="0 0 60 60"><defs><style>.cls-1{fill-rule:evenodd;}</style></defs><title>Network_60px</title><path d="M27.6,36.79v.05h0Z"/><path d="M27.76,36.34a1.42,1.42,0,0,1-.16.45l0-.46Z"/><path d="M28.86,36.39l-.1,0a.06.06,0,0,1,0,0Z"/><path d="M27.76,36.34a1.42,1.42,0,0,1-.16.45l0-.46Z"/><path d="M28.86,36.39l-.1,0a.06.06,0,0,1,0,0Z"/><path class="cls-1" d="M27.6,36.79v.05h0Z"/><path class="cls-1" d="M27.76,36.34a1.42,1.42,0,0,1-.16.45l0-.46Z"/><path d="M28.77,36.39a.06.06,0,0,0,0,0l.1,0Zm-1.2.46h0v-.05Z"/><path class="cls-1" d="M30,10.68a19.16,19.16,0,0,0-6.13,1A3.44,3.44,0,0,0,18,14.13a3.11,3.11,0,0,0,.07.69A19.3,19.3,0,1,0,30,10.68ZM45.61,22.49h0a50.09,50.09,0,0,1-4.35,4.12c-.58-1-1.19-2-1.84-3-.1-.16-.21-.32-.32-.47a3.36,3.36,0,0,0,.45-1.69,3.44,3.44,0,0,0-2.45-3.29,35.82,35.82,0,0,0-1.4-4.51A17.4,17.4,0,0,1,45.61,22.49Zm-4.94,7.19c.87,1.62,1.64,3.18,2.28,4.55A31.79,31.79,0,0,1,35.59,36,27,27,0,0,0,37,32.28C38.34,31.42,39.56,30.54,40.67,29.68Zm-3-.27a25.28,25.28,0,0,0,.32-4.3c.59.92,1.15,1.86,1.68,2.79C39.06,28.4,38.4,28.9,37.69,29.41Zm-2.23-9.24a1.45,1.45,0,0,1,.65-.16l.22,0a1.42,1.42,0,0,1,1.19,1.17h0a1.94,1.94,0,0,1,0,.24,1.43,1.43,0,0,1-1.22,1.42l-.22,0a1,1,0,0,1-.25,0,1.43,1.43,0,0,1-1.2-1.41.65.65,0,0,1,0-.2A1.4,1.4,0,0,1,35.46,20.17ZM30,12.68a17.6,17.6,0,0,1,3.27.31A35.61,35.61,0,0,1,35,18.19a3.05,3.05,0,0,0-.61.27,37.59,37.59,0,0,0-9.58-5A17.35,17.35,0,0,1,30,12.68Zm-9.75.65h0a1.43,1.43,0,0,1,1.19-.64h0a1.44,1.44,0,0,1,1.43,1.45.22.22,0,0,1,0,.08,1.43,1.43,0,0,1-1.43,1.36,1.33,1.33,0,0,1-.71-.2A1.41,1.41,0,0,1,20,14.13,1.45,1.45,0,0,1,20.25,13.33ZM12.68,30c0-.26,0-.52,0-.78,1.38,1.79,3.56,4.18,5.9,5.2a1.06,1.06,0,0,0,.4.08,1,1,0,0,0,1-1,1,1,0,0,0-.6-.92h0c-2.81-1.23-5.52-5.07-6.31-6.26a17.3,17.3,0,0,1,6-9.73,3.44,3.44,0,0,0,5.55-1.07A36.28,36.28,0,0,1,33,19.93a3.37,3.37,0,0,0-.36,1.52A3.43,3.43,0,0,0,36,24.88,21.54,21.54,0,0,1,35.3,31c-.92.58-1.89,1.13-2.9,1.66a34.2,34.2,0,0,1-3.25,1.47,3.42,3.42,0,0,0-2.81-1.47,3.46,3.46,0,0,0-3.45,3.45v0a78.68,78.68,0,0,1-8.32,1.69A17.1,17.1,0,0,1,12.68,30Zm21.65,3.89a19.78,19.78,0,0,1-1.1,2.38c-1.35.1-2.53.13-3.47.13a1.37,1.37,0,0,0,0-.29V36c1.21-.48,2.4-1,3.54-1.61Zm-5.47,2.5-.1,0a.06.06,0,0,1,0,0Zm-1.08-.28a1.64,1.64,0,0,1,0,.23,1.42,1.42,0,0,1-.16.45v.05h0a1.4,1.4,0,0,1-1.22.7,1.37,1.37,0,0,1-.58-.12,1.46,1.46,0,0,1-.87-1.32,1.42,1.42,0,0,1,.11-.55,1.45,1.45,0,0,1,1.34-.9,1.37,1.37,0,0,1,.77.23A1.46,1.46,0,0,1,27.78,36.11Zm-12.12,3.6a77.42,77.42,0,0,0,7.85-1.64,3.45,3.45,0,0,0,2.83,1.48,3.39,3.39,0,0,0,2.56-1.16h0l1.11,0c.58,0,1.24,0,2,0a26.66,26.66,0,0,1-8.18,7.81A17.45,17.45,0,0,1,15.66,39.71ZM30,47.32a17.24,17.24,0,0,1-3.69-.4,27.43,27.43,0,0,0,8.15-8.73,35.19,35.19,0,0,0,9.33-2.13c.55,1.26,1,2.22,1.14,2.7A17.32,17.32,0,0,1,30,47.32Zm16.1-11q-.21-.51-.48-1.11c.35-.17.7-.35,1-.55A13.49,13.49,0,0,1,46.1,36.37Zm-1.32-2.94c-.7-1.5-1.55-3.22-2.52-5,1.91-1.6,3.34-3,4.18-3.87A17.3,17.3,0,0,1,47.32,30a16.69,16.69,0,0,1-.12,2A17.22,17.22,0,0,1,44.78,33.43Z"/></svg>