<svg id="Layer_1" data-name="Layer 1" xmlns="http://www.w3.org/2000/svg" viewBox="0 0 60 60"><title>Router_60px</title><path d="M34.29,41.35l-3.3,3V36H29v8.37l-3.35-3.09a1,1,0,0,0-1.35,1.47L30,48l5.65-5.18a1,1,0,0,0-1.35-1.48Z"/><path d="M25.72,18.67l3.25-3V24h2V15.61l3.4,3.13a1,1,0,0,0,.68.26,1,1,0,0,0,.73-.32,1,1,0,0,0-.05-1.41L30,12l-5.65,5.18a1,1,0,0,0,1.35,1.48Z"/><path d="M21.76,24.29a1,1,0,1,0-1.48,1.34L23.35,29H11.9v2H23.28l-3.07,3.37a1,1,0,0,0,.06,1.41A1,1,0,0,0,21,36a1,1,0,0,0,.73-.32L26.94,30Z"/><path d="M37.64,29l3.09-3.39a1,1,0,0,0-1.47-1.35L34,30l5.17,5.68a1,1,0,0,0,.74.33,1,1,0,0,0,.67-.26,1,1,0,0,0,.07-1.41l-3-3.35H48V29Z"/><path d="M30,8A22,22,0,1,0,52,30,22,22,0,0,0,30,8Zm0,42A20,20,0,1,1,50,30,20,20,0,0,1,30,50Z"/></svg>