<svg id="Layer_1" data-name="Layer 1" xmlns="http://www.w3.org/2000/svg" viewBox="0 0 24 24"><title>Border Element_24px</title><path d="M6.17,9.12a.5.5,0,0,0,0,.71L7.2,11H4v1H7.18l-1,1.16a.51.51,0,0,0,0,.71.5.5,0,0,0,.34.13.51.51,0,0,0,.37-.17L9,11.48,6.88,9.16A.51.51,0,0,0,6.17,9.12Z"/><path d="M14,11.51l2.12,2.32a.5.5,0,0,0,.37.17.5.5,0,0,0,.37-.84L15.81,12H19V11H15.82l1.05-1.16a.5.5,0,1,0-.74-.67Z"/><path d="M13.17,16.14,12,17.2V14H11v3.18l-1.16-1a.5.5,0,0,0-.71,0,.5.5,0,0,0,0,.71L11.52,19l2.32-2.11a.5.5,0,1,0-.67-.74Z"/><path d="M11.49,4,9.16,6.14a.5.5,0,0,0,.68.74L11,5.81V9h1V5.83l1.16,1A.55.55,0,0,0,13.5,7a.5.5,0,0,0,.34-.88Z"/><path d="M21.88,11.15,17,2.37A.72.72,0,0,0,16.37,2H6.63A.72.72,0,0,0,6,2.37L1.12,11.15a.73.73,0,0,0,0,.7L6,20.63a.72.72,0,0,0,.63.37h9.74a.72.72,0,0,0,.63-.37l4.88-8.78A.73.73,0,0,0,21.88,11.15ZM16.21,20H6.79L2.07,11.5,6.79,3h9.42l4.72,8.5Z"/></svg>