<svg id="Layer_1" data-name="Layer 1" xmlns="http://www.w3.org/2000/svg" viewBox="0 0 24 24"><defs><style>.cls-1{fill-rule:evenodd;}</style></defs><title>Network_24px</title><path class="cls-1" d="M12,4a7.92,7.92,0,0,0-2.49.4,1.46,1.46,0,0,0-1-.4A1.5,1.5,0,0,0,7,5.5a2.11,2.11,0,0,0,0,.25,8,8,0,0,0-2.91,5l0,0s0,0,0,0A7.88,7.88,0,0,0,4,12a8,8,0,0,0,5.44,7.57l.15.06A8,8,0,1,0,12,4Zm6.15,4.66a18.83,18.83,0,0,1-1.64,1.53c-.19-.32-.39-.65-.59-1l-.07-.09A1.54,1.54,0,0,0,16,8.5,1.5,1.5,0,0,0,14.78,7a14.38,14.38,0,0,0-.56-1.66A7,7,0,0,1,18.15,8.66Zm-1.94,3.05c.36.66.67,1.3.93,1.87a12.76,12.76,0,0,1-2.74.72,11.26,11.26,0,0,0,.51-1.41c0-.11.05-.23.08-.34C15.42,12.27,15.83,12,16.21,11.71Zm-1-.52a7.53,7.53,0,0,0,0-1.16c.17.26.33.52.48.79C15.56,10.94,15.39,11.07,15.21,11.19ZM14.5,8a.5.5,0,1,1-.5.5A.5.5,0,0,1,14.5,8ZM12,5a6.63,6.63,0,0,1,1,.08,12.9,12.9,0,0,1,.73,2,15,15,0,0,0-3.47-1.8A6.64,6.64,0,0,1,12,5ZM8.5,5a.5.5,0,1,1-.5.5A.5.5,0,0,1,8.5,5ZM5,12a7,7,0,0,0,2.3,2,.65.65,0,0,0,.2,0,.5.5,0,0,0,.2-1h0a7.84,7.84,0,0,1-2.54-2.48A7,7,0,0,1,7.52,6.63,1.47,1.47,0,0,0,8.5,7a1.52,1.52,0,0,0,1.35-.85,14.39,14.39,0,0,1,3.3,1.7A1.59,1.59,0,0,0,13,8.5,1.49,1.49,0,0,0,14.24,10a9.32,9.32,0,0,1-.13,2c-.37.23-.76.45-1.16.66a14,14,0,0,1-1.58.69A1.55,1.55,0,0,0,10.5,13a1.51,1.51,0,0,0-1.41,1,32.8,32.8,0,0,1-3.54.71A6.93,6.93,0,0,1,5,12Zm8.72,1.3a10.2,10.2,0,0,1-.48,1.12c-.46,0-.88.06-1.24.06a1.49,1.49,0,0,0-.05-.36,14.72,14.72,0,0,0,1.46-.65ZM11,14.5a.5.5,0,1,1-.5-.5A.5.5,0,0,1,11,14.5Zm-1.54,4A7,7,0,0,1,6,15.65,31.08,31.08,0,0,0,9.1,15a1.5,1.5,0,0,0,1.4,1,1.52,1.52,0,0,0,1.11-.5h.14l.87,0A10.83,10.83,0,0,1,9.46,18.52ZM12,19a7,7,0,0,1-1.3-.13,11.11,11.11,0,0,0,3.16-3.49,14.29,14.29,0,0,0,3.69-.88c.23.54.39.93.45,1.09A7,7,0,0,1,12,19Zm6.58-4.64-.12-.28.26-.15C18.68,14.07,18.63,14.22,18.58,14.36ZM19,12.6a7.53,7.53,0,0,1-.9.56c-.29-.63-.64-1.34-1-2.08.68-.56,1.21-1.06,1.58-1.43A7.08,7.08,0,0,1,19,12c0,.21,0,.42,0,.62Z"/></svg>